<svg width="128" height="192" fill="none" xmlns="http://www.w3.org/2000/svg"><path fill="#552049" d="M0 0h64v128H0z"/><circle cx="32" cy="32" r="14" stroke="#FFF7F0" stroke-width="4"/><rect x="64" y="32" width="64" height="32" rx="16" fill="#F6A560"/><path fill-rule="evenodd" clip-rule="evenodd" d="m32 160 32 32v-32H32ZM64 128l32 32v-32H64Z" fill="#61C4B7"/><circle cx="112" cy="48" r="14" stroke="#FFF7F0" stroke-width="4"/><circle cx="112" cy="48" r="14" stroke="#FFF7F0" stroke-width="4"/><g fill="#030303"><path d="M64 14h4v4h-4zM68 14h4v4h-4zM92 14h4v4h-4z"/></g><path fill-rule="evenodd" clip-rule="evenodd" d="m96 0 32 32V0H96Z" fill="#755CDE"/><g fill="#030303"><path d="M96 14h4v4h-4zM120 14h4v4h-4zM124 14h4v4h-4z"/></g><circle cx="80" cy="80" r="14" stroke="#030303" stroke-width="4"/><path fill="#EB7565" d="M96 64h32v32H96z"/><path fill-rule="evenodd" clip-rule="evenodd" d="m32 96 96 96V96H32Z" fill="#FFF7F0"/><g fill="#030303"><path d="M0 128h4v4H0zM14 128h4v4h-4zM28 128h4v4h-4zM0 142h4v4H0zM14 142h4v4h-4zM28 142h4v4h-4zM0 156h4v4H0zM14 156h4v4h-4zM28 156h4v4h-4z"/></g></svg>