<svg width="160" height="64" fill="none" xmlns="http://www.w3.org/2000/svg"><path fill="#EB7565" d="M32 0h64v64H32z"/><circle cx="16" cy="16" r="14" stroke="#030303" stroke-width="4"/><circle cx="64" cy="32" r="14" stroke="#FFF7F0" stroke-width="4"/><g fill="#030303"><path d="M128 32h4v4h-4zM142 32h4v4h-4zM156 32h4v4h-4zM128 56h4v4h-4zM142 56h4v4h-4zM156 56h4v4h-4zM128 60h4v4h-4zM142 60h4v4h-4zM156 60h4v4h-4z"/></g><g fill="#030303"><path d="M128 0h4v4h-4zM142 0h4v4h-4zM156 0h4v4h-4zM128 4h4v4h-4zM142 4h4v4h-4zM156 4h4v4h-4zM128 28h4v4h-4zM142 28h4v4h-4zM156 28h4v4h-4z"/></g><path fill-rule="evenodd" clip-rule="evenodd" d="m96 32 32 32V32H96Z" fill="#FFF7F0"/><path fill-rule="evenodd" clip-rule="evenodd" d="m96 32 32 32V32H96Z" fill="#552049"/><path fill-rule="evenodd" clip-rule="evenodd" d="M32 64 0 32v32h32Z" fill="#F39E9E"/><path fill-rule="evenodd" clip-rule="evenodd" d="m96 32 32-32v32H96Z" fill="#FFF7F0"/></svg>