<svg width="65" height="64" fill="none" xmlns="http://www.w3.org/2000/svg"><rect x=".463" y="32" width="64.39" height="32" rx="16" fill="#552049"/><path d="M62.853 48c0 7.72-6.3 14-14.098 14-7.797 0-14.097-6.28-14.097-14s6.3-14 14.097-14c7.798 0 14.098 6.28 14.098 14Z" stroke="#FFF7F0" stroke-width="4"/><g fill="#030303"><path d="M.463 14h4.024v4H.463zM4.487 14h4.024v4H4.487zM28.633 14h4.024v4h-4.024z"/></g><path fill-rule="evenodd" clip-rule="evenodd" d="m32.658 0 32.195 32V0H32.658Z" fill="#755CDE"/><g fill="#030303"><path d="M32.658 14h4.024v4h-4.024zM56.804 14h4.024v4h-4.024zM60.828 14h4.024v4h-4.024z"/></g></svg>