<svg width="65" height="64" fill="none" xmlns="http://www.w3.org/2000/svg"><path d="M62.853 16c0 7.72-6.3 14-14.098 14-7.797 0-14.097-6.28-14.097-14s6.3-14 14.097-14c7.798 0 14.098 6.28 14.098 14Z" stroke="#030303" stroke-width="4"/><path fill="#EB7565" d="M.463 0h32.195v32H.463z"/><g fill="#030303"><path d="M.463 32h4.024v4H.463zM14.548 32h4.024v4h-4.024zM28.634 32h4.024v4h-4.024zM.463 46h4.024v4H.463zM14.548 46h4.024v4h-4.024zM28.634 46h4.024v4h-4.024zM.463 60h4.024v4H.463zM14.548 60h4.024v4h-4.024zM28.634 60h4.024v4h-4.024z"/></g><path fill-rule="evenodd" clip-rule="evenodd" d="m32.658 32 32.195 32V32H32.658Z" fill="#FFF7F0"/></svg>