<svg width="128" height="64" fill="none" xmlns="http://www.w3.org/2000/svg"><circle cx="112" cy="16" r="14" stroke="#FFF7F0" stroke-width="4"/><path fill="#755CDE" d="M64 0h32v32H64z"/><g fill="#030303"><path d="M96 32h4v4h-4zM110 32h4v4h-4zM124 32h4v4h-4zM96 46h4v4h-4zM110 46h4v4h-4zM124 46h4v4h-4zM96 60h4v4h-4zM110 60h4v4h-4zM124 60h4v4h-4z"/></g><path fill-rule="evenodd" clip-rule="evenodd" d="m64 32 32 32V32H64Z" fill="#F39E9E"/><g fill="#030303"><path d="M32 32h4v4h-4zM46 32h4v4h-4zM60 32h4v4h-4zM32 56h4v4h-4zM46 56h4v4h-4zM60 56h4v4h-4zM32 60h4v4h-4zM46 60h4v4h-4zM60 60h4v4h-4z"/></g><g fill="#030303"><path d="M32 0h4v4h-4zM46 0h4v4h-4zM60 0h4v4h-4zM32 4h4v4h-4zM46 4h4v4h-4zM60 4h4v4h-4zM32 28h4v4h-4zM46 28h4v4h-4zM60 28h4v4h-4z"/></g><path fill-rule="evenodd" clip-rule="evenodd" d="m0 32 32 32V32H0Z" fill="#61C4B7"/><path fill-rule="evenodd" clip-rule="evenodd" d="M32 0 0 32V0h32Z" fill="#FFF7F0"/></svg>